<svg enable-background="0 0 400 400" height="512" viewBox="100 200 310 100" width="512" xmlns="http://www.w3.org/2000/svg">
	<path style="fill:#000000;" d="M181.333,309.333c-3.357,0-6.519-1.581-8.533-4.267L128,245.333v53.333
		c0,5.891-4.776,10.667-10.667,10.667s-10.667-4.776-10.667-10.667v-85.333c0-5.891,4.776-10.667,10.667-10.667
		c3.357,0,6.519,1.581,8.533,4.267l44.8,59.733v-53.333c0-5.891,4.776-10.667,10.667-10.667c5.891,0,10.667,4.776,10.667,10.667
		v85.333c-0.003,4.589-2.942,8.662-7.296,10.112C183.618,309.146,182.48,309.333,181.333,309.333z"/>
	<path style="fill:#000000;" d="M266.667,309.333H224c-5.891,0-10.667-4.776-10.667-10.667v-85.333
		c0-5.891,4.776-10.667,10.667-10.667h42.667c5.891,0,10.667,4.776,10.667,10.667c0,5.891-4.776,10.667-10.667,10.667h-32v64h32
		c5.891,0,10.667,4.776,10.667,10.667C277.333,304.558,272.558,309.333,266.667,309.333z"/>
	<path style="fill:#000000;" d="M266.667,266.667H224c-5.891,0-10.667-4.776-10.667-10.667c0-5.891,4.776-10.667,10.667-10.667
		h42.667c5.891,0,10.667,4.776,10.667,10.667C277.333,261.891,272.558,266.667,266.667,266.667z"/>
	<path style="fill:#000000;" d="M373.333,309.333c-4.597,0.006-8.681-2.934-10.133-7.296L352,268.395l-11.2,33.643
		c-1.283,4.66-5.726,7.727-10.539,7.275c-4.738-0.18-8.788-3.465-9.941-8.064l-21.333-85.333c-1.426-5.72,2.056-11.513,7.776-12.939
		c5.72-1.426,11.513,2.056,12.939,7.776l12.437,49.792l9.749-29.248c2.535-5.591,9.122-8.068,14.713-5.533
		c2.454,1.113,4.42,3.079,5.533,5.533l9.749,29.248l12.437-49.792c1.426-5.72,7.218-9.202,12.939-7.776
		c5.72,1.426,9.202,7.218,7.776,12.939l-21.333,85.333c-1.153,4.599-5.204,7.884-9.941,8.064L373.333,309.333z"/>
</svg>
